<svg width="400" height="400" viewBox="0 0 400 400" fill="none" xmlns="http://www.w3.org/2000/svg">
<circle cx="200" cy="200" r="200" fill="#FB6E1F"/>
<path fill-rule="evenodd" clip-rule="evenodd" d="M106.564 139.198H182.25H182.295C210.694 139.198 221.39 159.751 224.36 167.11C227.075 173.835 233.28 178.779 240.735 179.682C241.777 179.847 242.846 179.933 243.934 179.933H279C295.254 179.933 299.81 190.579 299.81 190.583C303.381 196.187 303.381 204.314 299.81 209.921C299.81 209.921 299.809 209.923 299.807 209.927C299.685 210.201 295.049 220.572 279 220.572H244.255C244.163 220.572 244.072 220.572 243.98 220.573C226.746 219.854 218.313 208.965 210.305 198.627C202.842 188.991 195.749 179.834 182.246 179.834H106.56C95.7023 179.834 86.5106 188.229 85.9498 199.07C85.3444 210.781 94.6579 220.469 106.239 220.469H187.203C203.457 220.469 208.012 231.115 208.012 231.119C211.584 236.723 211.584 244.85 208.012 250.457L208.01 250.463C207.887 250.738 203.251 261.108 187.203 261.108H106.56C95.7023 261.108 86.5106 269.503 85.9498 280.344C85.3444 292.055 94.6579 301.743 106.239 301.743H182.246C195.203 301.743 200.572 293.31 206.418 284.128C213.281 273.348 220.802 261.535 242.034 261.119C242.659 261.177 243.293 261.207 243.934 261.207H274.043C287 261.207 292.369 252.774 298.215 243.592C305.202 232.618 312.871 220.572 334.996 220.572C347.186 220.572 356.02 210.75 355.272 198.934C354.659 189.222 347.19 180.119 337.421 180.083V180.075C319.072 180 310.36 168.753 302.103 158.091C294.639 148.455 287.546 139.298 274.043 139.298H245.236C244.568 139.231 243.891 139.198 243.206 139.198H243.162C223.753 139.198 215.801 127.729 208.347 116.978C201.77 107.491 195.579 98.5625 182.246 98.5625H106.239C94.662 98.5625 85.3443 108.25 85.9498 119.961C86.5106 130.802 95.7022 139.198 106.56 139.198H106.564Z" fill="#F4F4F0"/>
</svg>
