<svg width="56" height="56" viewBox="0 0 56 56" fill="none" xmlns="http://www.w3.org/2000/svg">
  <circle cx="28" cy="28" r="28" fill="#6B6763" />
  <path
    d="M25.0044 24.5422L25.011 25.0866L26.708 25.0932C28.3127 25.0976 28.4027 25.0954 28.4005 25.0603C28.4005 25.0383 28.3808 24.99 28.3566 24.9549C28.3347 24.9176 28.3061 24.8693 28.2952 24.8451C28.2842 24.821 28.2491 24.7639 28.2183 24.7178C28.1876 24.6717 28.1612 24.63 28.1612 24.6234C28.1612 24.6124 28.0032 24.3402 27.9417 24.2414C27.9285 24.2238 27.8956 24.1624 27.8649 24.1031L27.81 23.9999H26.405H25L25.0044 24.5422Z"
    fill="white" />
  <path
    d="M28.1169 24.0176C28.1169 24.0417 28.1806 24.1647 28.2838 24.3403C28.3123 24.3886 28.3453 24.4479 28.3584 24.472C28.3716 24.4962 28.4067 24.5598 28.4397 24.6147C28.4704 24.6696 28.5121 24.742 28.5319 24.7794C28.5516 24.8145 28.5933 24.8847 28.6241 24.933C28.6548 24.9813 28.6877 25.0362 28.6943 25.0538C28.7031 25.0713 28.7316 25.1218 28.7558 25.1635C28.7821 25.2052 28.826 25.2799 28.8502 25.3282C28.8985 25.4138 28.9775 25.5477 29.0346 25.6355C29.0478 25.6597 29.0675 25.6948 29.0763 25.7124C29.0851 25.7299 29.1465 25.8397 29.2146 25.9538C29.2827 26.068 29.3441 26.1778 29.3529 26.1953C29.4253 26.3468 29.5219 26.4127 29.5395 26.3227C29.5439 26.3029 29.59 26.2195 29.6449 26.1361C29.6976 26.0548 29.7415 25.9824 29.7415 25.9714C29.7415 25.9626 29.7722 25.9121 29.8073 25.8595C29.8447 25.8046 29.8732 25.7563 29.8732 25.7497C29.8732 25.7431 29.9193 25.6597 29.9764 25.5653C30.2113 25.1723 30.3342 24.9242 30.3342 24.8496C30.3342 24.7794 30.2376 24.6696 30.0532 24.5335C29.8425 24.3754 29.8337 24.371 29.6317 24.2744C29.5417 24.2305 29.4495 24.1844 29.4297 24.1735C29.3749 24.1449 29.14 24.0747 28.9951 24.0439C28.826 24.0088 28.1169 23.9869 28.1169 24.0176Z"
    fill="white" />
  <path
    d="M30.4948 25.1458C30.4838 25.1612 30.4662 25.1897 30.4575 25.2073C30.4509 25.2248 30.4245 25.2687 30.4004 25.306C30.3762 25.3412 30.3477 25.3939 30.3345 25.4224C30.3235 25.4487 30.2774 25.5278 30.2335 25.5958C30.1918 25.6639 30.1457 25.7385 30.1347 25.7649C30.1238 25.7912 30.1018 25.8307 30.0886 25.8549C30.014 25.9712 29.9459 26.0898 29.8669 26.2391C29.8186 26.3291 29.755 26.4388 29.7264 26.4805C29.7001 26.5223 29.6759 26.564 29.6759 26.5727C29.6759 26.5815 29.6474 26.632 29.6101 26.6847C29.5749 26.7396 29.5442 26.7901 29.5442 26.7989C29.5442 26.8076 29.5047 26.8801 29.4564 26.9569C29.4059 27.0338 29.3576 27.1194 29.3444 27.1457C29.3335 27.1721 29.3027 27.2291 29.2764 27.2709C29.2522 27.3126 29.2083 27.3916 29.1798 27.4443C29.1512 27.497 29.1183 27.5519 29.1073 27.565C29.0986 27.5782 29.0568 27.6484 29.0173 27.7209C28.9778 27.7933 28.9317 27.879 28.912 27.9097C28.8549 28.0129 28.8812 28.0304 29.1205 28.0458C29.2391 28.0546 29.6123 28.0612 29.9525 28.0612C30.677 28.0612 30.6002 28.0897 30.7472 27.7538C30.9207 27.3565 30.9712 27.104 30.9712 26.6452C30.9712 26.3137 30.958 26.193 30.8833 25.8768C30.8285 25.6375 30.8065 25.5805 30.688 25.339C30.587 25.1348 30.5387 25.0887 30.4948 25.1458Z"
    fill="white" />
  <path
    d="M25.2041 25.3105C25.1163 25.3149 25.0592 25.3303 25.0395 25.3545C25.0175 25.383 25.0087 25.6025 25.0043 26.4345C25.0021 27.0097 25.0065 27.6068 25.0153 27.7649C25.0307 28.0196 25.0373 28.0503 25.0724 28.0503C25.0987 28.0503 25.1361 28.0064 25.18 27.9296C25.2436 27.8132 25.3775 27.5805 25.4193 27.5124C25.4302 27.4949 25.4697 27.4246 25.5049 27.3588C25.6102 27.17 25.6673 27.069 25.7266 26.9746C25.7573 26.9263 25.7903 26.8714 25.799 26.8538C25.8078 26.8363 25.8254 26.8012 25.8408 26.777C25.8561 26.7529 25.922 26.6387 25.9878 26.5246C26.0537 26.4104 26.1196 26.2962 26.1349 26.2721C26.1503 26.2479 26.1701 26.2084 26.1832 26.1821C26.2008 26.1426 26.3479 25.8923 26.405 25.8001C26.4159 25.7825 26.4401 25.7364 26.4598 25.7013C26.4774 25.664 26.5213 25.585 26.5586 25.5257C26.6508 25.3698 26.6552 25.361 26.6289 25.3347C26.6047 25.3105 25.4829 25.2908 25.2041 25.3105Z"
    fill="white" />
  <path
    d="M25.9879 27.0117C25.9659 27.0644 25.9484 27.0908 25.8518 27.2422C25.8167 27.2927 25.7903 27.3388 25.7903 27.3454C25.7903 27.352 25.764 27.3937 25.7332 27.4398C25.7025 27.4859 25.6674 27.543 25.6564 27.5671C25.6454 27.5913 25.6169 27.6396 25.5927 27.6769C25.5686 27.712 25.5401 27.7625 25.5269 27.7867C25.5159 27.8108 25.4962 27.846 25.483 27.8635C25.4237 27.9557 25.1976 28.3465 25.1976 28.3553C25.1976 28.3619 25.169 28.408 25.1339 28.4606C25.101 28.5133 25.0615 28.5902 25.0483 28.6319C25.0329 28.6846 25.022 29.3541 25.0176 30.6955L25.011 32.6822L25.843 32.6888C26.4379 32.691 26.6838 32.6866 26.7036 32.6691C26.7299 32.6471 26.7343 32.3683 26.7343 31.0248C26.7343 29.7559 26.7409 29.4002 26.7628 29.3827C26.776 29.3695 26.9055 29.3563 27.046 29.3519C27.1865 29.3497 27.3117 29.3344 27.3248 29.3234C27.338 29.308 27.3205 29.2531 27.2722 29.1587C27.0834 28.7877 27.0131 28.6538 26.9429 28.5331C26.9011 28.4606 26.8419 28.3509 26.8111 28.2916C26.7804 28.2301 26.7343 28.1467 26.708 28.105C26.6838 28.0633 26.6399 27.9843 26.6092 27.9294C26.5806 27.8745 26.5214 27.7713 26.4796 27.6989C26.4379 27.6264 26.394 27.5474 26.3831 27.5232C26.3699 27.4991 26.3523 27.464 26.3391 27.4464C26.2821 27.3586 26.1196 27.0666 26.1196 27.0534C26.1196 27.0337 26.045 26.9634 26.023 26.9634C26.0164 26.9634 25.9989 26.9854 25.9879 27.0117Z"
    fill="white" />
  <path
    d="M27.5528 28.3004C27.3289 28.307 27.1664 28.3224 27.151 28.3378C27.1291 28.3597 27.2345 28.588 27.443 28.9612C27.4803 29.0271 27.5594 29.1764 27.6186 29.2905C27.6779 29.4047 27.7613 29.5627 27.8031 29.6418C27.8448 29.7208 27.9282 29.8789 27.9897 29.993C28.0511 30.1072 28.1433 30.2806 28.1938 30.3772C28.2443 30.4738 28.3255 30.6297 28.376 30.7219C28.4265 30.8163 28.5231 30.9985 28.5912 31.128C28.6592 31.2575 28.7317 31.3958 28.7536 31.4353C28.7756 31.4727 28.859 31.6263 28.9358 31.7756C29.0149 31.9249 29.1071 32.1005 29.1444 32.1664C29.1795 32.2322 29.2498 32.3662 29.3003 32.4628C29.3507 32.5593 29.4078 32.6515 29.4276 32.6669C29.4693 32.6977 30.4001 32.702 30.9116 32.6735C31.2277 32.6559 31.287 32.6362 31.2277 32.5615C31.2124 32.544 31.1772 32.4847 31.1509 32.4298C31.1224 32.3749 31.0807 32.2959 31.0565 32.2542C31.0302 32.2125 30.9885 32.1378 30.9643 32.0895C30.938 32.0413 30.905 31.9864 30.8919 31.9688C30.8787 31.9512 30.8304 31.8656 30.7843 31.7822C30.7404 31.6966 30.6943 31.6132 30.6833 31.5956C30.6218 31.4924 30.466 31.2202 30.466 31.2136C30.466 31.2048 30.2903 30.8953 30.2464 30.8272C30.2355 30.8097 30.2003 30.7438 30.1674 30.6846C30.1015 30.555 30.0796 30.5199 29.9984 30.3948C29.9654 30.3421 29.9391 30.2894 29.9391 30.274C29.9391 30.2609 29.9259 30.2323 29.9084 30.2148C29.893 30.195 29.8425 30.1094 29.7964 30.026C29.7525 29.9403 29.6954 29.8372 29.6713 29.7954C29.6471 29.7537 29.6032 29.6747 29.5725 29.6198C29.5439 29.5649 29.4978 29.4859 29.4737 29.4442C29.3727 29.2708 29.3222 29.1588 29.3288 29.1237C29.3332 29.1039 29.3903 29.0578 29.4561 29.0205C29.8579 28.8054 29.8205 28.8273 30.0269 28.6736C30.2552 28.5024 30.3913 28.3751 30.3716 28.3553C30.3628 28.3465 30.2596 28.3312 30.1411 28.3224C29.8469 28.2982 28.0138 28.2829 27.5528 28.3004Z"
    fill="white" />
  <path
    d="M52 28C52 41.2552 41.2552 52 28 52C14.7448 52 4 41.2552 4 28C4 14.7448 14.7448 4 28 4C41.2552 4 52 14.7448 52 28ZM30.3196 51.7441C31.4651 51.6222 32.4929 51.4516 33.4394 51.2282L33.9553 51.1063V51.0738C33.9553 51.0291 18.8517 35.8849 18.0555 35.1334C17.7265 34.8246 17.4543 34.5768 17.4462 34.585C17.4259 34.6093 17.2593 44.3792 17.2309 47.0765L17.2065 49.3148L17.3243 49.3595C17.3893 49.3839 17.7062 49.5261 18.0311 49.6723C19.6317 50.4116 21.3947 50.9885 23.1618 51.3541L23.9418 51.5166L24.673 51.6181C25.0752 51.671 25.6439 51.74 25.9323 51.7603C26.2248 51.7847 26.5416 51.8131 26.6432 51.8213C26.7448 51.8294 27.476 51.8294 28.2681 51.8253L29.7102 51.8091L30.3196 51.7441ZM35.4787 50.6473L36.4942 50.3101L37.1442 50.042C39.3582 49.1239 41.434 47.8605 43.3595 46.2559L43.8876 45.8172L44.826 44.8829L45.7644 43.9445L46.1909 43.4367C47.1131 42.3439 48.023 41.0481 48.6771 39.9106C49.0183 39.3135 49.2701 38.8301 49.2701 38.7651V38.7244H41.7996H34.329L34.3047 40.1584C34.2925 40.9425 34.26 43.327 34.2397 45.4475C34.2194 47.5721 34.1869 49.6967 34.1747 50.176L34.1503 51.0454L34.3047 51.0169C34.394 51.0007 34.9221 50.8341 35.4787 50.6473ZM33.9959 50.5782C33.9959 50.4807 34.0244 48.3277 34.0569 45.7928C34.0894 43.258 34.1178 40.6622 34.1178 40.0244V38.8666L31.1036 41.8808L28.0853 44.8991L31.0102 47.824C32.6188 49.4326 33.9472 50.7488 33.9634 50.7488H33.9959V50.5782ZM16.9912 48.8314C17.0034 48.6689 17.0237 48.0068 17.0359 47.3568C17.0887 44.432 17.1821 39.0982 17.2187 36.8761L17.2552 34.4387L17.2268 34.4103L17.1984 34.3859L14.3345 34.3412C12.7583 34.3169 10.0081 34.2844 8.22478 34.2681L4.97901 34.2437L5.00745 34.39C5.05213 34.6297 5.47055 35.893 5.72241 36.5471C7.48138 41.1496 10.6378 45.0901 14.7813 47.8565C15.6303 48.4252 16.8165 49.1239 16.9343 49.1239H16.9668L16.9912 48.8314ZM31.0589 41.6818L34.1178 38.6229V36.6852V34.7475L33.9472 34.7271C33.7644 34.7028 32.3832 34.6703 25.587 34.5403C19.6236 34.4225 17.8199 34.394 17.7102 34.4144L17.6168 34.4306L22.7678 39.5816C25.6033 42.4171 27.9391 44.7366 27.9634 44.7366C27.9838 44.7366 29.3812 43.3595 31.0589 41.6818ZM49.7576 37.8429C51.0088 35.0156 51.6425 32.4035 51.8335 29.2999L51.8822 28.5078L51.8578 27.4719L51.8335 26.436L51.7685 25.7861C51.736 25.4286 51.671 24.8802 51.6263 24.5674C51.4963 23.6696 51.155 22.0325 51.0819 21.9594L51.0616 21.935L50.501 22.4672C50.1923 22.7596 46.4509 26.4929 42.1814 30.7583L34.4225 38.5213H41.9377H49.4529L49.7576 37.8429ZM41.6534 24.9127L38.566 21.8253H36.4455H34.3209V30.1205V38.4198L39.5288 33.2119L44.7407 28L41.6534 24.9127ZM34.1178 28.1625V21.8253H27.9431H21.7684V28.0569V34.2844L23.3649 34.3169C24.2383 34.3331 26.4563 34.3778 28.2884 34.4184C30.1205 34.455 32.1801 34.4915 32.8707 34.4956L34.1178 34.4997V28.1625ZM21.5653 25.9892V17.6818H21.5288C21.5085 17.6818 19.1645 20.0014 16.3209 22.8409L11.1456 28L14.2532 31.0833L17.3609 34.1706L17.5234 34.195C17.6127 34.2112 18.4171 34.2356 19.3108 34.2519C20.2045 34.2681 21.0779 34.2844 21.2525 34.2884L21.5653 34.2965V25.9892ZM16.914 34.0041C16.8246 33.9066 15.4841 32.5538 13.9282 30.998L11.1049 28.1625H11.0603H11.0156L8.09479 31.0995L5.174 34.0325L6.53487 34.0609C8.2979 34.1016 13.0995 34.1584 15.3297 34.1666L17.0724 34.1747L16.914 34.0041ZM14.3507 24.5958L21.4557 17.4868L20.2613 17.4624C19.6033 17.4502 17.4218 17.4299 15.411 17.4177C13.4001 17.4056 10.6012 17.3852 9.19567 17.369L6.63236 17.3446L6.39675 17.8483C5.26337 20.237 4.5281 22.9425 4.23155 25.8064L4.16249 26.4766V27.9594L4.15843 29.4421L4.21124 29.9702C4.30061 30.8883 4.41842 31.7332 4.56872 32.5091C4.70684 33.2282 4.85308 33.87 4.89777 33.9431L4.91808 33.9756L6.07989 32.8382C6.72173 32.2126 10.4428 28.5037 14.3507 24.5958ZM47.8037 24.9289C49.392 23.3324 50.6919 22.0081 50.6919 21.9919V21.9594L49.0386 21.9309C48.1246 21.9188 45.7278 21.8863 43.7048 21.8659C41.6818 21.8456 39.7603 21.8172 39.4313 21.805L38.8301 21.7806V21.8131C38.8301 21.8294 40.1787 23.1943 41.824 24.8395L44.8219 27.8375H44.8666H44.9154L47.8037 24.9289ZM50.9113 21.3785C50.6838 20.5173 50.1517 19.0833 49.6723 18.0393C47.5355 13.3554 43.7251 9.32972 39.1672 6.92891L38.6676 6.66486V14.1192V21.5775L38.7407 21.5978C38.7773 21.61 40.5119 21.6385 42.5877 21.6628C44.6676 21.6872 46.6662 21.7116 47.0359 21.7156C47.4056 21.7238 48.4496 21.7319 49.3595 21.736L51.0129 21.7441L50.9113 21.3785ZM33.1429 16.4347C30.3196 13.5992 27.9919 11.2756 27.9716 11.2674L27.935 11.2552L24.8517 14.3345L21.7684 17.4177V19.4976V21.5816H30.019H38.2695L33.1429 16.4347ZM38.4645 14.0176V6.61205L38.432 6.56737C38.3995 6.52268 37.5179 6.12864 36.8395 5.86053C34.6784 4.99932 32.4441 4.46716 30.1368 4.25999L29.4665 4.19905L28.6337 4.17468L27.801 4.14624L26.8869 4.19093L25.9729 4.23561L25.4245 4.29655C24.3236 4.42248 22.2112 4.81246 22.0122 4.93026L21.9513 4.96276L30.1774 13.193C34.7028 17.7183 38.4157 21.4191 38.432 21.4191H38.4645V14.0176ZM21.5816 15.9269C21.5938 15.1835 21.6263 12.8111 21.6466 10.654C21.671 8.49695 21.6953 6.35207 21.7035 5.88896L21.7156 5.04401L21.6913 5.03182C21.6141 4.98714 20.2288 5.43805 19.1889 5.84834L18.4171 6.15301L17.6046 6.54705C13.0752 8.74882 9.38253 12.2911 6.96141 16.7596L6.77048 17.1171L6.79079 17.1374L6.8111 17.1618L10.6865 17.1984C15.0697 17.2431 16.4347 17.2512 19.4367 17.2674L21.5572 17.2756L21.5816 15.9269ZM24.8761 8.17603L21.9513 5.25119L21.9269 5.68585C21.9106 5.92959 21.8781 8.2654 21.8538 10.8775C21.8294 13.4936 21.7969 15.9675 21.7847 16.3819L21.7603 17.1334L24.7827 14.1192L27.801 11.1009L24.8761 8.17603Z"
    fill="white" stroke="white" stroke-width="0.8" />
</svg>