<svg xmlns="http://www.w3.org/2000/svg" width="152" height="38" viewBox="0 0 152 38" fill="none"><g clip-path="url(#clip0_208_1722)"><g clip-path="url(#clip1_208_1722)"><path d="M33.3811 18.5476C34.2674 18.5476 35.0832 18.1438 35.829 17.3827C35.9774 17.65 36.05 17.954 36.0387 18.2609C36.0257 18.6032 35.9548 18.9406 35.829 19.2582L35.8761 19.3294C37.2738 19.2582 38.0902 18.855 38.9066 18.2137C39 18.8084 39 19.0725 39 19.7844C39 22.8261 36.3189 25.7449 32.7737 25.7449C29.2794 25.7449 26.5729 22.8475 26.5729 19.499H26.1999C25.9667 20.1403 25.8733 20.8289 25.9667 21.755C22.0734 23.3465 21.0245 25.8873 21.0245 28.333H18.6712C18.547 27.0162 18.6655 25.6874 19.0206 24.415C19.3237 23.3465 19.8834 21.9686 20.9323 20.9001L20.6293 20.5675C19.2316 21.7078 18.9971 22.1349 17.7849 23.7497C16.783 23.9639 15.9424 24.5573 14.5212 24.5573C13.612 24.5573 12.6565 24.415 11.1177 23.6785C11.5624 22.8947 11.8636 22.1828 11.9335 20.8768H11.4671C10.5351 24.7476 6.85142 25.3883 5.26626 25.6737C3.86852 25.9112 3.37804 26.9797 3.37804 28.0243C3.37588 28.1277 3.38354 28.2311 3.40091 28.333H2.06989C2.02322 27.9869 1.99987 27.6379 2 27.2885C2 26.5287 2.04638 25.7682 2.39645 25.1275C3.65822 22.9646 4.70653 22.1569 4.70653 20.4963C4.70653 18.7864 3.4708 17.6487 3.40091 17.5755C4.12392 17.4545 4.3806 16.7426 4.86981 15.9828C5.94225 14.2963 7.73708 14.0354 8.66975 14.0354C9.57891 14.0354 10.1151 14.1539 11.0243 14.1539C15.1972 14.1539 17.2957 9.33301 22.3777 9.33301C25.5951 9.33301 27.8098 11.7082 28.1358 14.7693L28.2057 14.7933C28.6256 14.3183 29.3493 13.6769 30.1873 13.3921C30.1873 13.5112 30.1644 13.651 30.1644 13.796C30.1644 16.0773 30.7705 18.5476 33.3811 18.5476ZM11.4671 28.3311H9.34575C8.62337 27.6425 8.15703 26.5979 8.04013 26.0012C9.34574 25.4317 9.92898 25.0039 10.6514 24.2913L11.0713 24.624C10.8061 25.0932 10.6692 25.6262 10.6749 26.1675C10.6749 26.6924 10.6749 27.0011 11.4671 28.3311ZM24.2196 28.3311H22.3078C22.3078 25.719 23.0537 24.7929 24.1262 23.7477L24.4527 24.0066C24.008 25.0039 23.9629 25.6925 23.9629 26.3578C23.9629 27.2153 24.0563 27.7848 24.2196 28.3311Z" fill="url(#paint0_radial_208_1722)"></path><path d="M48.3775 30V14H51.7055V15.696C52.2602 15.0347 52.9428 14.512 53.7535 14.128C54.5642 13.744 55.4388 13.552 56.3775 13.552C56.9748 13.552 57.5668 13.632 58.1535 13.792L56.8255 17.152C56.4095 16.992 55.9935 16.912 55.5775 16.912C54.8735 16.912 54.2282 17.088 53.6415 17.44C53.0548 17.7813 52.5855 18.2453 52.2335 18.832C51.8815 19.4187 51.7055 20.0693 51.7055 20.784V30H48.3775ZM75.6825 19.968V30H72.3545V20.784C72.3545 20.0693 72.1785 19.4187 71.8265 18.832C71.4852 18.2453 71.0212 17.7813 70.4345 17.44C69.8585 17.088 69.2078 16.912 68.4825 16.912C67.7785 16.912 67.1332 17.088 66.5465 17.44C65.9598 17.7813 65.4905 18.2453 65.1385 18.832C64.7865 19.4187 64.6105 20.0693 64.6105 20.784V30H61.2825V6H64.6105V15.696C65.1652 15.0347 65.8478 14.512 66.6585 14.128C67.4692 13.744 68.3438 13.552 69.2825 13.552C70.4665 13.552 71.5438 13.84 72.5145 14.416C73.4852 14.992 74.2532 15.7653 74.8185 16.736C75.3945 17.7067 75.6825 18.784 75.6825 19.968ZM80.1563 14H83.4843V30H80.1563V14ZM81.8523 11.68C81.3403 11.68 80.9136 11.5147 80.5723 11.184C80.2309 10.8533 80.0603 10.4373 80.0603 9.936C80.0603 9.44533 80.2309 9.03467 80.5723 8.704C80.9136 8.36267 81.3349 8.192 81.8363 8.192C82.3269 8.192 82.7429 8.36267 83.0843 8.704C83.4256 9.03467 83.5963 9.44533 83.5963 9.936C83.5963 10.4373 83.4256 10.8533 83.0843 11.184C82.7536 11.5147 82.3429 11.68 81.8523 11.68ZM102.899 19.968V30H99.5708V20.784C99.5708 20.0693 99.3948 19.4187 99.0428 18.832C98.7014 18.2453 98.2374 17.7813 97.6508 17.44C97.0748 17.088 96.4241 16.912 95.6988 16.912C94.9948 16.912 94.3494 17.088 93.7628 17.44C93.1761 17.7813 92.7068 18.2453 92.3548 18.832C92.0028 19.4187 91.8268 20.0693 91.8268 20.784V30H88.4988V14H91.8268V15.696C92.3814 15.0347 93.0641 14.512 93.8748 14.128C94.6854 13.744 95.5601 13.552 96.4988 13.552C97.6828 13.552 98.7601 13.84 99.7308 14.416C100.701 14.992 101.469 15.7653 102.035 16.736C102.611 17.7067 102.899 18.784 102.899 19.968ZM114.1 30.416C112.628 30.416 111.284 30.0373 110.068 29.28C108.863 28.5227 107.897 27.5093 107.172 26.24C106.457 24.96 106.1 23.5467 106.1 22C106.1 20.8267 106.308 19.7333 106.724 18.72C107.14 17.696 107.711 16.8 108.436 16.032C109.172 15.2533 110.025 14.6453 110.996 14.208C111.967 13.7707 113.001 13.552 114.1 13.552C115.572 13.552 116.911 13.9307 118.116 14.688C119.332 15.4453 120.297 16.464 121.012 17.744C121.737 19.024 122.1 20.4427 122.1 22C122.1 23.1627 121.892 24.2507 121.476 25.264C121.06 26.2773 120.484 27.1733 119.748 27.952C119.023 28.72 118.175 29.3227 117.204 29.76C116.244 30.1973 115.209 30.416 114.1 30.416ZM114.1 27.088C114.985 27.088 115.78 26.8533 116.484 26.384C117.188 25.9147 117.743 25.296 118.148 24.528C118.564 23.7493 118.772 22.9067 118.772 22C118.772 21.072 118.559 20.2187 118.132 19.44C117.716 18.6613 117.156 18.0427 116.452 17.584C115.748 17.1147 114.964 16.88 114.1 16.88C113.225 16.88 112.431 17.1147 111.716 17.584C111.012 18.0533 110.452 18.6773 110.036 19.456C109.631 20.2347 109.428 21.0827 109.428 22C109.428 22.9493 109.641 23.808 110.068 24.576C110.495 25.344 111.06 25.9573 111.764 26.416C112.479 26.864 113.257 27.088 114.1 27.088ZM127.038 30.416C126.547 30.416 126.131 30.2453 125.79 29.904C125.459 29.5627 125.294 29.1467 125.294 28.656C125.294 28.176 125.459 27.7653 125.79 27.424C126.131 27.0827 126.547 26.912 127.038 26.912C127.528 26.912 127.944 27.0827 128.286 27.424C128.627 27.7653 128.798 28.176 128.798 28.656C128.798 29.1467 128.627 29.5627 128.286 29.904C127.944 30.2453 127.528 30.416 127.038 30.416ZM138.044 10.368V14H142.556V17.328H138.044V30H134.716V17.328H132.812V14H134.716V10.368C134.716 9.49333 134.93 8.69867 135.356 7.984C135.783 7.25867 136.354 6.68266 137.068 6.256C137.794 5.82933 138.599 5.616 139.484 5.616C140.124 5.616 140.748 5.744 141.356 6C141.964 6.256 142.508 6.65067 142.988 7.184L140.604 9.536C140.487 9.344 140.322 9.2 140.108 9.104C139.906 8.99733 139.698 8.944 139.484 8.944C139.09 8.944 138.748 9.08267 138.46 9.36C138.183 9.63733 138.044 9.97333 138.044 10.368ZM146.306 14H149.634V30H146.306V14ZM148.002 11.68C147.49 11.68 147.064 11.5147 146.722 11.184C146.381 10.8533 146.21 10.4373 146.21 9.936C146.21 9.44533 146.381 9.03467 146.722 8.704C147.064 8.36267 147.485 8.192 147.986 8.192C148.477 8.192 148.893 8.36267 149.234 8.704C149.576 9.03467 149.746 9.44533 149.746 9.936C149.746 10.4373 149.576 10.8533 149.234 11.184C148.904 11.5147 148.493 11.68 148.002 11.68Z" fill="#141414"></path></g></g><defs><radialGradient id="paint0_radial_208_1722" cx="0" cy="0" r="1" gradientUnits="userSpaceOnUse" gradientTransform="translate(2 9.33301) rotate(27.1811) scale(41.5933 33.8035)"><stop stop-color="#FED681"></stop><stop offset="1" stop-color="#F25E40"></stop></radialGradient><clipPath id="clip0_208_1722"><rect width="152" height="38" fill="white"></rect></clipPath><clipPath id="clip1_208_1722"><rect width="152" height="38" fill="white"></rect></clipPath></defs></svg>