<svg width="30" height="32" viewBox="0 0 30 32" fill="none" xmlns="http://www.w3.org/2000/svg">
<g clip-path="url(#clip0_16492_53116)">
<path d="M16.9823 18.4316L15.3907 22.6795C15.3437 22.7973 15.3437 22.9282 15.3907 23.046L18.1239 30.3572L21.2868 28.5768L17.4926 18.4316C17.4053 18.196 17.0696 18.196 16.9823 18.4316Z" fill="white"/>
<path d="M20.1645 11.2841C20.0772 11.0485 19.7414 11.0485 19.6541 11.2841L18.0626 15.532C18.0156 15.6499 18.0156 15.7808 18.0626 15.8986L22.5417 27.87L25.7047 26.0896L20.1645 11.2841Z" fill="white"/>
<path d="M14.5455 1.98323C14.626 1.98323 14.6999 2.00286 14.7738 2.04214L26.8346 8.82962C26.9756 8.90816 27.0629 9.05216 27.0629 9.20925V22.7842C27.0629 22.9413 26.9756 23.0853 26.8346 23.1638L14.7738 29.9579C14.7066 29.9971 14.626 30.0168 14.5455 30.0168C14.4649 30.0168 14.391 29.9971 14.3171 29.9579L2.26307 23.1704C2.12205 23.0918 2.03475 22.9478 2.03475 22.7908V9.20925C2.03475 9.05216 2.12205 8.90816 2.26307 8.82962L14.3238 2.04214C14.391 2.00286 14.4716 1.98323 14.5455 1.98323ZM14.5455 0C14.1157 0 13.6859 0.11127 13.3031 0.327265L1.24234 7.11475C0.47679 7.54674 0 8.34527 0 9.20925V22.7842C0 23.6482 0.47679 24.4533 1.24234 24.8853L13.3031 31.6727C13.6859 31.8887 14.1157 32 14.5455 32C14.9752 32 15.405 31.8887 15.7878 31.6727L27.8486 24.8853C28.6208 24.4533 29.0909 23.6547 29.0909 22.7842V9.20925C29.0909 8.34527 28.6141 7.54019 27.8486 7.1082L15.7945 0.327265C15.405 0.11127 14.9752 0 14.5455 0Z" fill="white"/>
<path d="M6.57422 27.883L7.68225 24.9246L9.91175 26.7311L7.82999 28.5899L6.57422 27.883Z" fill="white"/>
<path d="M13.5302 8.24072H10.4747C10.2464 8.24072 10.0382 8.37817 9.96434 8.58762L3.41016 26.1029L6.57309 27.8832L13.7921 8.59417C13.8525 8.42399 13.7249 8.24072 13.5302 8.24072Z" fill="white"/>
<path d="M18.8855 8.24072H15.83C15.6017 8.24072 15.3935 8.37817 15.3197 8.58762L7.83203 28.5901L10.995 30.3704L19.1407 8.60071C19.2078 8.42399 19.0735 8.24072 18.8855 8.24072Z" fill="white"/>
</g>
<defs>
<clipPath id="clip0_16492_53116">
<rect width="29.0909" height="32" fill="white"/>
</clipPath>
</defs>
</svg>
