<svg width="20" height="20" viewBox="0 0 21 20" fill="none" xmlns="http://www.w3.org/2000/svg">
<g clip-path="url(#clip0_4261_12690)">
<path d="M10.5364 1.23923C10.5839 1.23923 10.6313 1.25236 10.6739 1.27534L18.0006 5.51826C18.0857 5.5675 18.1381 5.65942 18.1381 5.75626V14.2405C18.1381 14.3389 18.0857 14.4292 18.0006 14.4785L10.6739 18.7214C10.633 18.746 10.5839 18.7575 10.5364 18.7575C10.489 18.7575 10.4415 18.7444 10.399 18.7214L3.07226 14.4817C2.98716 14.4325 2.93479 14.3406 2.93479 14.2437V5.7579C2.93479 5.65942 2.98716 5.56914 3.07226 5.5199L10.399 1.27698C10.4415 1.25236 10.489 1.23923 10.5364 1.23923ZM10.5364 0C10.2762 0 10.0144 0.0672958 9.78036 0.203529L2.45529 4.44481C1.98725 4.71563 1.69922 5.21625 1.69922 5.7579V14.2421C1.69922 14.7838 1.98725 15.2844 2.45529 15.5552L9.78199 19.7981C10.016 19.9327 10.2762 20.0016 10.5381 20.0016C10.7999 20.0016 11.0601 19.9343 11.2941 19.7981L18.6208 15.5552C19.0889 15.2844 19.3769 14.7838 19.3769 14.2421V5.7579C19.3769 5.21625 19.0889 4.71563 18.6208 4.44481L11.2925 0.203529C11.0585 0.0672958 10.7966 0 10.5364 0Z" fill="#E57310"/>
<path d="M8.66976 5.65454H7.7124C7.64039 5.65454 7.57657 5.69886 7.55202 5.76779L4.47373 14.2307C4.45409 14.2865 4.495 14.3456 4.55392 14.3456H5.51128C5.58329 14.3456 5.64711 14.3012 5.67166 14.2323L8.74995 5.76779C8.76959 5.71363 8.72868 5.65454 8.66976 5.65454Z" fill="#E57310"/>
<path d="M9.90793 8.93566C9.88011 8.86015 9.77538 8.86015 9.74756 8.93566L9.25005 10.3046C9.23696 10.3423 9.23696 10.3833 9.25005 10.4227L10.6362 14.234C10.6607 14.3013 10.7246 14.3472 10.7966 14.3472H11.7539C11.8128 14.3472 11.8538 14.2881 11.8341 14.2323L9.90793 8.93566Z" fill="#E57310"/>
<path d="M10.342 5.65454H9.38459C9.31258 5.65454 9.24876 5.69886 9.22421 5.76779L6.14755 14.2307C6.12792 14.2865 6.16883 14.3456 6.22774 14.3456H7.18511C7.25712 14.3456 7.32094 14.3012 7.34549 14.2323L10.4238 5.76779C10.4434 5.71363 10.4025 5.65454 10.342 5.65454Z" fill="#E57310"/>
<path d="M10.7458 6.63439C10.718 6.55888 10.6133 6.55888 10.5854 6.63439L10.0879 8.00328C10.0749 8.04103 10.0749 8.08207 10.0879 8.12146L12.312 14.2339C12.3365 14.3012 12.4003 14.3471 12.4724 14.3471H13.4297C13.4886 14.3471 13.5295 14.2881 13.5099 14.2323L10.7458 6.63439Z" fill="#E57310"/>
<path d="M16.5199 5.65454H15.5625C15.4905 5.65454 15.4267 5.69886 15.4021 5.76779L13.1797 11.8802C13.1666 11.918 13.1666 11.959 13.1797 11.9984L13.6772 13.3673C13.7051 13.4428 13.8098 13.4428 13.8376 13.3673L16.6001 5.77108C16.6213 5.71363 16.5788 5.65454 16.5199 5.65454Z" fill="#E57310"/>
<path d="M12.8413 11.0645C12.8691 11.14 12.9739 11.14 13.0017 11.0645L14.9279 5.76944C14.9475 5.71363 14.9066 5.65454 14.8477 5.65454H13.8903C13.8183 5.65454 13.7545 5.69886 13.7299 5.76779L12.3438 9.57904C12.3307 9.61679 12.3307 9.65782 12.3438 9.69722L12.8413 11.0645Z" fill="#E57310"/>
</g>
<defs>
<clipPath id="clip0_4261_12690">
<rect width="17.6744" height="20" fill="white" transform="translate(1.69922)"/>
</clipPath>
</defs>
</svg>
