<svg xmlns="http://www.w3.org/2000/svg" width="52" height="52" fill="none" viewBox="0 0 52 52" class="size-8"><path fill="#655EA8" d="m51.354 29.108-1.942-7.567a.63.63 0 0 0-.457-.451l-7.5-1.849a1 1 0 0 0-.173-.018.61.61 0 0 0-.5.173L28.126 32.05l-1.675-6.54a.63.63 0 0 0-.458-.452l-6.442-1.589L32.2 10.82a.65.65 0 0 0 .148-.259.6.6 0 0 0 .037-.402l-1.942-7.567a.63.63 0 0 0-.457-.452l-7.5-1.848a.63.63 0 0 0-.426.05h-.006c-.037.018-.068.043-.105.067-.031.025-.075.037-.1.068L.263 22.054s-.037.062-.062.093a.61.61 0 0 0-.124.575l2.096 7.314c.062.21.223.37.427.426l7.023 2.016 2.015 7.017c.062.21.223.37.427.427l7.048 2.021 2.022 7.048c.061.21.222.371.426.427l7.345 2.108a.6.6 0 0 0 .173.025c.012 0 .025-.006.043-.006h.013c.16 0 .321-.062.445-.186l21.595-21.595a.65.65 0 0 0 .149-.26.6.6 0 0 0 .037-.402zm-9.682 8.39-1.577-6.151 3.493-3.488 6.004 1.725-7.914 7.92zM29.424 49.746l-1.576-6.152 6.318-6.318L40.17 39zm4.872-14.369-1.508-5.255 5.422 1.336-3.914 3.913zm4.773-3.004 1.385 5.397-5.274-1.515 3.889-3.888zm.18-1.948-6.146-1.514 7.895-7.896 1.706 5.954zm-7.673.006 1.706 5.954-6.287 6.288-6.146-1.515zm16.717-8.228 1.577 6.151-5.96-1.712-1.706-5.942zm-28.371 18.04-1.577-6.151 2.276-2.276 6.003 1.725zm.828-10.325-1.508-5.255L24.664 26l-3.914 3.913zm6.158 2.4-5.274-1.516 3.89-3.888 1.384 5.397zm-7.165-1.386-2.245 2.244-6.145-1.514 6.683-6.683zM12.67 11.414l1.706 5.954-6.343 6.343-6.145-1.515zm9.366-9.366L23.743 8l-3.4 3.4-6.146-1.514zm.73 16.426-1.577-6.145 3.438-3.437 6.003 1.718zM15.39 16.36l-1.508-5.255 5.422 1.335-3.914 3.914zm4.773-3.005 1.385 5.398-5.268-1.515 3.89-3.889zm-4.896 4.897 6.003 1.719-10.801 10.8-1.577-6.145zM29.332 3.247 30.908 9.4l-5.96-1.713-1.706-5.941zM1.578 23.414 7 24.75l-3.913 3.913-1.509-5.255zm2.393 6.14 3.889-3.89 1.385 5.398-5.268-1.515zm8.773 9.267-1.706-5.941 6.09 1.502 1.576 6.152zm7.796 3.555 5.422 1.335-3.913 3.914-1.509-5.255zm2.393 6.14 3.889-3.89 1.384 5.398-5.273-1.515z"></path></svg>
