<svg width="25" height="26" viewBox="0 0 25 26" fill="none" xmlns="http://www.w3.org/2000/svg">
<g id="Logomark-White 1" clip-path="url(#clip0_7688_28942)">
<path id="Vector" d="M25 13C25 19.9032 19.4032 25.5 12.5 25.5C5.59683 25.5 0 19.9032 0 13C0 6.09683 5.59683 0.5 12.5 0.5C19.4046 0.5 25 6.09683 25 13Z" fill="white"/>
<path id="Vector_2" d="M6.16728 13.4205L6.2212 13.3357L9.47295 8.24877C9.52047 8.17427 9.63219 8.18199 9.66817 8.26288C10.2114 9.48038 10.6802 10.9945 10.4606 11.9372C10.3668 12.325 10.1099 12.8503 9.82097 13.3357C9.78375 13.4064 9.74264 13.4757 9.69897 13.5425C9.67845 13.5733 9.64375 13.5913 9.6065 13.5913H6.26231C6.17239 13.5913 6.11975 13.4937 6.16728 13.4205Z" fill="#2081E2"/>
<path id="Vector_3" d="M20.6611 14.3652V15.1705C20.6611 15.2167 20.6329 15.2578 20.5918 15.2758C20.3401 15.3837 19.4783 15.7792 19.12 16.2775C18.2056 17.5502 17.507 19.37 15.9453 19.37H9.43025C7.12117 19.37 5.25 17.4924 5.25 15.1756V15.1011C5.25 15.0395 5.30008 14.9894 5.36172 14.9894H8.99361C9.06553 14.9894 9.11819 15.0562 9.11178 15.1268C9.08608 15.3631 9.12975 15.6046 9.24147 15.8242C9.45722 16.2621 9.90417 16.5356 10.387 16.5356H12.185V15.1319H10.4076C10.3164 15.1319 10.2625 15.0266 10.3151 14.9521C10.3344 14.9226 10.3562 14.8918 10.3793 14.8571C10.5476 14.6182 10.7877 14.2471 11.0266 13.8246C11.1897 13.5395 11.3477 13.2351 11.4748 12.9294C11.5005 12.8742 11.521 12.8177 11.5416 12.7625C11.5763 12.6649 11.6122 12.5737 11.6379 12.4825C11.6636 12.4055 11.6841 12.3246 11.7047 12.2488C11.7651 11.9894 11.7907 11.7145 11.7907 11.4294C11.7907 11.3177 11.7856 11.2008 11.7753 11.0891C11.7702 10.9671 11.7548 10.8451 11.7394 10.7231C11.7291 10.6152 11.7098 10.5086 11.6893 10.3969C11.6636 10.2338 11.6276 10.072 11.5865 9.90886L11.5724 9.84722C11.5416 9.7355 11.5159 9.62889 11.4799 9.51717C11.3785 9.16656 11.2616 8.82494 11.1383 8.50517C11.0934 8.37803 11.042 8.25603 10.9906 8.13403C10.9149 7.95036 10.8378 7.78342 10.7672 7.62544C10.7312 7.55353 10.7004 7.48803 10.6696 7.42125C10.6349 7.34547 10.5989 7.26972 10.563 7.19778C10.5373 7.14256 10.5077 7.09119 10.4872 7.03983L10.2676 6.634C10.2368 6.57878 10.2881 6.51328 10.3485 6.52997L11.7227 6.90242H11.7265C11.7291 6.90242 11.7304 6.90369 11.7317 6.90369L11.9127 6.95378L12.1118 7.01028L12.185 7.03083V6.21406C12.185 5.81978 12.5009 5.5 12.8913 5.5C13.0866 5.5 13.2638 5.57961 13.3909 5.70933C13.5181 5.83906 13.5977 6.01628 13.5977 6.21406V7.42639L13.7441 7.46747C13.7556 7.47133 13.7672 7.47647 13.7775 7.48417C13.8134 7.51114 13.8648 7.55097 13.9303 7.59975C13.9817 7.64086 14.0369 7.69094 14.1037 7.74231C14.236 7.84892 14.3939 7.98633 14.5673 8.14428C14.6135 8.18411 14.6585 8.22519 14.6996 8.26631C14.923 8.47433 15.1735 8.71836 15.4123 8.98806C15.4791 9.06381 15.5446 9.14086 15.6114 9.22178C15.6782 9.30397 15.7488 9.38489 15.8105 9.46581C15.8914 9.57367 15.9787 9.68539 16.0545 9.80228C16.0904 9.8575 16.1315 9.914 16.1662 9.96922C16.2638 10.1169 16.3499 10.2697 16.4321 10.4226C16.4667 10.4932 16.5027 10.5702 16.5335 10.646C16.6247 10.8502 16.6966 11.0583 16.7428 11.2663C16.757 11.3113 16.7672 11.3601 16.7724 11.4038V11.414C16.7878 11.4757 16.7929 11.5412 16.7981 11.6079C16.8186 11.8211 16.8083 12.0343 16.7621 12.2488C16.7428 12.34 16.7171 12.426 16.6863 12.5172C16.6555 12.6045 16.6247 12.6957 16.5849 12.7817C16.5078 12.9602 16.4166 13.1388 16.3088 13.3057C16.2741 13.3674 16.233 13.4329 16.1919 13.4945C16.1469 13.56 16.1007 13.6217 16.0596 13.682C16.0031 13.7591 15.9428 13.84 15.8811 13.9119C15.8259 13.9877 15.7694 14.0634 15.7077 14.1302C15.6217 14.2317 15.5395 14.328 15.4534 14.4205C15.4021 14.4808 15.3468 14.5425 15.2903 14.5977C15.2351 14.6593 15.1786 14.7146 15.1272 14.7659C15.0412 14.852 14.9693 14.9187 14.9089 14.974L14.7676 15.1037C14.7471 15.1217 14.7201 15.1319 14.6919 15.1319H13.5977V16.5356H14.9744C15.2826 16.5356 15.5754 16.4265 15.8118 16.2261C15.8926 16.1555 16.2458 15.8498 16.6632 15.3888C16.6773 15.3734 16.6953 15.3618 16.7159 15.3567L20.5186 14.2574C20.5892 14.2368 20.6611 14.2907 20.6611 14.3652Z" fill="#2081E2"/>
</g>
<defs>
<clipPath id="clip0_7688_28942">
<rect width="25" height="25" fill="white" transform="translate(0 0.5)"/>
</clipPath>
</defs>
</svg>
