<svg width="207" height="207" viewBox="0 0 207 207" fill="none" xmlns="http://www.w3.org/2000/svg">
<path fill-rule="evenodd" clip-rule="evenodd" d="M134.185 60C134.185 76.9978 120.422 90.7769 103.444 90.7769C95.014 90.7769 87.3759 87.3785 81.822 81.8757C87.335 87.4383 90.7407 95.0973 90.7407 103.553C90.7407 112.051 87.2994 119.745 81.7362 125.315L60 103.553V72.776C68.4742 72.776 76.1475 76.2088 81.7081 81.7614L103.444 60H134.185ZM125.291 125.238C130.851 130.792 138.525 134.225 147 134.225V103.448L125.264 81.6863C119.701 87.2561 116.259 94.9503 116.259 103.448C116.259 111.902 119.663 119.559 125.174 125.121C119.62 119.62 111.983 116.223 103.555 116.223C86.5772 116.223 72.8143 130.002 72.8143 147H103.555L125.291 125.238Z" fill="#55E794"/>
</svg>
