<svg width="665" height="207" viewBox="0 0 665 207" fill="none" xmlns="http://www.w3.org/2000/svg">
<path fill-rule="evenodd" clip-rule="evenodd" d="M176.188 74.6413H193.031C208.478 74.6413 217.187 79.0775 217.187 93.7852C217.187 108.493 208.477 113.011 193.031 113.011H183.665V132.565H176.188V74.6413ZM193.278 106.602C202.891 106.602 209.793 104.631 209.793 93.7852C209.793 82.9395 202.891 81.0501 193.278 81.0501H183.665V106.602H193.278ZM242.742 90.9096C255.724 90.9096 264.351 100.03 264.351 112.107C264.351 124.185 255.724 133.387 242.742 133.387C229.761 133.387 221.052 124.267 221.052 112.107C221.052 99.9471 229.678 90.9096 242.742 90.9096ZM242.742 127.143C252.027 127.143 257.121 120.406 257.121 112.107C257.121 103.808 252.027 97.154 242.742 97.154C233.458 97.154 228.282 103.892 228.282 112.107C228.282 120.323 233.375 127.143 242.742 127.143ZM283.294 124.843L273.845 91.7318H266.945L278.037 132.566H290.771L300.137 94.3612L309.586 132.566H321.91L333.248 91.7318H326.264L316.898 124.843L315.829 129.033L306.381 91.7318H293.81L284.444 129.362L283.294 124.843ZM356.428 90.9096C368.506 90.9096 376.394 98.2222 376.394 110.875V113.505H343.94C344.187 121.475 348.376 127.555 356.839 127.555C363.824 127.555 367.932 123.939 369.328 118.27H376.558C374.915 125.829 369.493 133.388 356.922 133.388C343.612 133.388 336.875 123.692 336.875 111.615C336.875 98.3872 344.762 90.9103 356.429 90.9103L356.428 90.9096ZM369.246 108.329C368.753 100.934 363.741 96.6616 356.428 96.6616C349.69 96.6616 344.597 100.933 344.022 108.329H369.246ZM412.186 91.7318H389.702C385.84 91.7318 383.95 93.5393 383.95 97.4005V132.566H391.263V97.9762H412.186V91.7318ZM412.221 126.266H423.641V80.8851H412.182V74.6413H426.682C429.393 74.6413 430.954 76.0382 430.954 78.7495V126.266H442.375V132.511H412.221V126.266ZM488.092 112.107C488.092 100.03 479.465 90.9096 466.484 90.9096C453.42 90.9096 444.793 99.9471 444.793 112.107C444.793 124.267 453.503 133.387 466.484 133.387C479.465 133.387 488.092 124.185 488.092 112.107ZM480.862 112.107C480.862 120.406 475.768 127.143 466.484 127.143C457.117 127.143 452.023 120.323 452.023 112.107C452.023 103.892 457.2 97.154 466.484 97.154C475.768 97.154 480.862 103.808 480.862 112.107ZM514.788 90.9096C527.769 90.9096 536.396 100.03 536.396 112.107C536.396 124.185 527.769 133.387 514.788 133.387C501.807 133.387 493.097 124.267 493.097 112.107C493.097 99.9471 501.724 90.9096 514.788 90.9096ZM514.788 127.143C524.072 127.143 529.166 120.406 529.166 112.107C529.166 103.808 524.072 97.154 514.788 97.154C505.503 97.154 500.327 103.892 500.327 112.107C500.327 120.323 505.421 127.143 514.788 127.143ZM548.721 91.7313H541.408L541.407 91.7306V132.565H548.72V115.64C548.72 104.713 552.746 97.1538 561.373 97.1538C567.453 97.1538 569.508 101.59 569.508 109.478V132.565H576.82V115.64C576.82 104.713 580.846 97.1538 589.473 97.1538C595.553 97.1538 597.607 101.59 597.607 109.478V132.565H604.92V108.575C604.92 97.647 600.483 90.9094 591.198 90.9094C582.9 90.9094 577.971 95.8394 575.752 101.919C574.355 95.1001 570.411 90.9094 563.51 90.9094C555.458 90.9094 550.775 95.922 548.721 102.002V91.7313Z" fill="white"/>
<path fill-rule="evenodd" clip-rule="evenodd" d="M134.185 60C134.185 76.9978 120.422 90.7769 103.444 90.7769C95.014 90.7769 87.3759 87.3785 81.822 81.8757C87.335 87.4383 90.7407 95.0973 90.7407 103.553C90.7407 112.051 87.2994 119.745 81.7362 125.315L60 103.553V72.776C68.4742 72.776 76.1475 76.2088 81.7081 81.7614L103.444 60H134.185ZM125.291 125.238C130.851 130.792 138.525 134.225 147 134.225V103.448L125.264 81.6863C119.701 87.2561 116.259 94.9503 116.259 103.448C116.259 111.902 119.663 119.559 125.174 125.121C119.62 119.62 111.983 116.223 103.555 116.223C86.5772 116.223 72.8143 130.002 72.8143 147H103.555L125.291 125.238Z" fill="#55E794"/>
</svg>
