<svg width="200" height="200" viewBox="0 0 200 200" fill="none" xmlns="http://www.w3.org/2000/svg">
<rect x="0.357143" y="0.357143" width="199.286" height="199.285" rx="99.6425" fill="#161818"/>
<rect x="0.357143" y="0.357143" width="199.286" height="199.285" rx="99.6425" stroke="#283535" stroke-width="0.714286"/>
<g clip-path="url(#clip0_5_603)">
<path fill-rule="evenodd" clip-rule="evenodd" d="M146.948 33.3669C146.948 59.3913 125.876 80.4876 99.8829 80.4876C86.9489 80.4876 75.2322 75.2622 66.7245 66.8052C75.1972 75.3262 80.434 87.0753 80.434 100.049C80.434 113.06 75.1653 124.84 66.6479 133.367L33.3691 100.049V52.9284C46.3432 52.9284 58.091 58.184 66.6044 66.6849L99.8829 33.3669H146.948ZM133.331 133.25C141.844 141.752 153.593 147.009 166.568 147.009V99.8881L133.289 66.5699C124.772 75.0974 119.503 86.8776 119.503 99.8881C119.503 112.804 124.694 124.507 133.1 133.018C124.602 124.627 112.931 119.447 100.053 119.447C74.0599 119.447 52.9886 140.543 52.9886 166.567H100.053L133.331 133.25Z" fill="#55E794"/>
</g>
<defs>
<clipPath id="clip0_5_603">
<rect width="133.2" height="133.201" fill="white" transform="translate(33.3665 33.3689)"/>
</clipPath>
</defs>
</svg>
