<svg width="39" height="39" viewBox="0 0 39 39" fill="none" xmlns="http://www.w3.org/2000/svg">
<g clip-path="url(#clip0_31309_29597)">
<path d="M17.0699 36.1428C26.4974 37.2486 35.0361 30.5026 36.1419 21.0752C37.2477 11.6478 30.5018 3.109 21.0744 2.0032C11.647 0.8974 3.10814 7.64338 2.00234 17.0708C0.896541 26.4982 7.64253 35.037 17.0699 36.1428Z" fill="#0C4AED" fill-opacity="0.25"/>
<path d="M23.0973 21.8432C23.3631 19.5771 22.0886 18.6403 19.3955 17.9956C17.4756 17.5076 17.1469 16.9445 17.2533 16.0377C17.3597 15.1308 18.0788 14.6247 19.3782 14.7771C20.5486 14.9144 21.1538 15.379 21.3641 16.389C21.3868 16.4869 21.439 16.5756 21.5138 16.6429C21.5884 16.7102 21.6819 16.7531 21.7818 16.7657L22.8219 16.8877C22.8818 16.8963 22.9428 16.8928 23.0013 16.8771C23.0597 16.8615 23.1144 16.8341 23.1619 16.7967C23.2095 16.7593 23.249 16.7126 23.278 16.6595C23.307 16.6064 23.3249 16.5479 23.3307 16.4877L23.3382 16.4237C23.2935 15.7056 23.0129 15.0224 22.5401 14.4801C22.0673 13.9378 21.4285 13.567 20.7233 13.425L20.9055 11.8717C20.9359 11.6124 20.7634 11.3954 20.4467 11.2922L19.4705 11.1777C19.2113 11.1473 18.9933 11.3186 18.8901 11.6353L18.7155 13.1246C16.7339 13.1539 15.3476 14.3043 15.1576 15.9238C14.9071 18.0597 16.1078 19.0538 18.8009 19.6985C20.5842 20.2354 21.1231 20.6934 21.0016 21.7293C20.8802 22.7641 19.8866 23.3701 18.6512 23.2252C16.9602 23.0268 16.459 22.2466 16.3778 21.2518C16.3441 20.9861 16.163 20.833 15.9678 20.8101L14.8625 20.6804C14.8026 20.6719 14.7417 20.6757 14.6834 20.6914C14.625 20.7071 14.5705 20.7345 14.523 20.7719C14.4756 20.8093 14.4363 20.8559 14.4073 20.909C14.3784 20.962 14.3605 21.0204 14.3549 21.0805L14.3473 21.1445C14.4166 22.7944 15.3212 24.0816 17.4287 24.6576L17.2463 26.212C17.216 26.4702 17.3884 26.6883 17.7052 26.7904L18.6814 26.9049C18.9406 26.9353 19.1586 26.764 19.2616 26.4484L19.4441 24.8929C21.4333 24.7985 22.8922 23.5917 23.0973 21.8432Z" fill="white" fill-opacity="0.7"/>
<path d="M14.6935 27.7527C9.83439 25.3442 7.89411 19.406 10.3651 14.6418C11.6593 12.0357 14.0476 10.2166 16.8277 9.5574C17.1032 9.45884 17.255 9.27981 17.2931 8.95549L17.3994 8.04865C17.4297 7.79047 17.3234 7.58116 17.0707 7.48555C17.0057 7.47792 16.8755 7.46265 16.8029 7.51903C15.2861 7.80436 13.8407 8.38693 12.5498 9.23317C11.259 10.0794 10.1484 11.1727 9.2818 12.4499C8.41522 13.7272 7.80988 15.1632 7.5006 16.6754C7.19132 18.1876 7.18422 19.746 7.4797 21.2609C8.22351 25.0254 10.6931 28.1379 14.1976 29.73C14.4428 29.8897 14.7183 29.7911 14.8127 29.5394C14.8853 29.483 14.893 29.4168 14.9082 29.2877L15.0146 28.3809C15.0373 28.1867 14.8734 27.9058 14.6935 27.7527ZM23.955 8.35902C23.71 8.19833 23.4344 8.29796 23.3401 8.54863C23.2674 8.60608 23.2598 8.67115 23.2446 8.80024L23.1383 9.70708C23.1078 9.96632 23.2717 10.2473 23.4517 10.4003C28.3108 12.8089 30.2511 18.747 27.7801 23.5112C26.4859 26.1174 24.0975 27.9365 21.3175 28.5957C21.042 28.6942 20.8901 28.8733 20.8521 29.1976L20.7457 30.1044C20.7154 30.3626 20.8218 30.5719 21.0744 30.6675C21.1395 30.6752 21.2697 30.6904 21.3423 30.634C22.8592 30.3487 24.3046 29.7662 25.5954 28.9199C26.8862 28.0737 27.9969 26.9804 28.8635 25.7032C29.73 24.4259 30.3354 22.9899 30.6446 21.4777C30.9539 19.9655 30.961 18.4071 30.6655 16.8921C29.9292 13.0636 27.3945 9.9435 23.955 8.35902Z" fill="white" fill-opacity="0.7"/>
</g>
<defs>
<clipPath id="clip0_31309_29597">
<rect width="34.3736" height="34.3736" fill="white" transform="translate(4.00444) rotate(6.69)"/>
</clipPath>
</defs>
</svg>
