<svg width="24" height="24" viewBox="0 0 24 24" fill="none" xmlns="http://www.w3.org/2000/svg">
    <g clip-path="url(#clip0_4261_12441)">
        <path d="M17.6963 9.63389L12.2963 6.54773C12.1116 6.44273 11.8847 6.44179 11.701 6.54773L6.30578 9.63389C6.11922 9.74076 6.00391 9.93951 6.00391 10.1551V15.5983C6.00391 15.814 6.11922 16.0118 6.30578 16.1187L11.701 19.2077C11.7929 19.2602 11.896 19.2874 11.9991 19.2874C12.1022 19.2874 12.2044 19.2611 12.2972 19.2086L17.6972 16.1196C17.8838 16.0127 17.9991 15.814 17.9991 15.5983V10.1542C17.9991 9.9395 17.8829 9.74076 17.6963 9.63389ZM11.4001 17.6523L7.20302 15.2494V11.1891L11.3992 13.5901L11.4001 17.6523ZM12.0001 12.5513L7.81142 10.1551L11.9992 7.75975L16.1908 10.1551L12.0001 12.5513ZM16.7992 15.2494L12.6001 17.6513V13.5901L16.7992 11.1891V15.2494Z" fill="#1A1C1D"/>
        <path d="M21.57 15.3955V8.08104C21.57 7.86541 21.4547 7.66665 21.2681 7.55978L14.2753 3.5633C14.3278 3.36924 14.3549 3.16485 14.3549 2.95485C14.3559 1.65641 13.2993 0.599854 12.0009 0.599854C10.7024 0.599854 9.64588 1.65641 9.64588 2.95485C9.64588 3.16579 9.67401 3.36924 9.72557 3.5633L2.73461 7.55978C2.54804 7.66666 2.43273 7.8654 2.43273 8.08104V15.3955C1.42399 15.6618 0.677734 16.5815 0.677734 17.6727C0.677734 18.9712 1.73429 20.0277 3.03273 20.0277C3.68899 20.0277 4.28335 19.7577 4.71086 19.3227L11.7047 23.3211C11.7956 23.3736 11.8978 23.3999 12.001 23.3999C12.1041 23.3999 12.2063 23.3736 12.2991 23.3211L19.2929 19.3227C19.7204 19.7577 20.3148 20.0277 20.9711 20.0277C22.2695 20.0277 23.3261 18.9712 23.3261 17.6727C23.3251 16.5815 22.5788 15.6618 21.57 15.3955ZM12.001 1.8C12.6375 1.8 13.156 2.31749 13.156 2.955C13.156 3.59155 12.6375 4.10906 12.001 4.10906C11.3644 4.10906 10.846 3.59157 10.846 2.95406C10.846 2.31751 11.3644 1.8 12.001 1.8ZM3.03193 18.8278C2.39538 18.8278 1.87693 18.3103 1.87693 17.6728C1.87693 17.0362 2.39442 16.5178 3.03193 16.5178C3.66848 16.5178 4.18693 17.0352 4.18693 17.6728C4.18599 18.3093 3.66848 18.8278 3.03193 18.8278ZM18.6161 17.6728C18.6161 17.8828 18.6442 18.0871 18.6958 18.2812L12.001 22.109L5.30618 18.2812C5.35774 18.0871 5.38586 17.8828 5.38586 17.6728C5.38586 16.5815 4.64054 15.6618 3.6318 15.3956V8.42909L10.3228 4.60493C10.7502 5.03899 11.3446 5.30899 12.0009 5.30899C12.6571 5.30899 13.2515 5.03899 13.679 4.60399L20.37 8.42815V15.3946C19.3612 15.6618 18.6161 16.5815 18.6161 17.6728ZM20.9702 18.8278C20.3336 18.8278 19.8152 18.3103 19.8152 17.6728C19.8152 17.0362 20.3326 16.5178 20.9702 16.5178C21.6067 16.5178 22.1252 17.0352 22.1252 17.6728C22.1252 18.3093 21.6067 18.8278 20.9702 18.8278Z" fill="var(--color-fill)"/>
    </g>
    <defs>
        <clipPath id="clip0_4261_12441">
            <rect width="24" height="24" fill="white"/>
        </clipPath>
    </defs>
</svg>
