<svg width="124" height="31" viewBox="0 0 124 31" fill="none" xmlns="http://www.w3.org/2000/svg">
<g clip-path="url(#clip0_15113_6921)">
<path d="M40.4889 8.06447C40.7792 8.06447 41.0313 8.12107 41.2316 8.2416C41.4318 8.36213 41.6321 8.58997 41.8257 8.93173L45.6558 15.7478C45.6949 15.8235 45.7008 15.8867 45.6813 15.9374C45.6618 15.9881 45.6041 16.0131 45.5133 16.0131H44.0408C43.9118 16.0131 43.821 15.9624 43.776 15.8676L42.9554 14.4057H37.5101L36.709 15.8676C36.6572 15.969 36.5672 16.0131 36.4442 16.0131H34.9394C34.8359 16.0131 34.7782 15.9881 34.7587 15.9374C34.7392 15.8867 34.7459 15.8235 34.7842 15.7478L38.5888 8.92585C38.7824 8.58409 38.9699 8.35625 39.1574 8.23572C39.345 8.11519 39.558 8.05859 39.8033 8.05859H40.4882V8.06521L40.4889 8.06447ZM38.2348 13.0828H42.2262L40.3854 9.75415C40.3532 9.70344 40.3141 9.67184 40.2564 9.67184H40.1851C40.1334 9.67184 40.0884 9.69683 40.0561 9.75415L38.2348 13.0828Z" fill="white"/>
<path d="M54.0915 8.06324C54.9827 8.06324 55.6158 8.25947 56.0036 8.65194C56.3914 9.04441 56.585 9.6265 56.585 10.3989V11.0442C56.585 11.6962 56.4492 12.2084 56.1784 12.5884C55.9068 12.9684 55.468 13.2087 54.8544 13.316L56.837 15.7208C56.876 15.759 56.8888 15.8156 56.8693 15.8913C56.8565 15.967 56.792 16.0052 56.6817 16.0052H55.1897C55.0862 16.0052 55.0217 15.9928 54.9827 15.9736C54.9437 15.9487 54.9054 15.9104 54.8664 15.8597L53.0323 13.499H49.2862V15.7583C49.2862 15.9229 49.2021 16.0052 49.0341 16.0052H47.7814C47.6006 16.0052 47.5166 15.9229 47.5166 15.7583V8.40426C47.5166 8.17642 47.6329 8.0625 47.8654 8.0625H54.0923L54.0915 8.06324ZM49.2922 12.1136H53.73C54.1238 12.1136 54.4021 12.0313 54.5634 11.8667C54.7246 11.702 54.8086 11.4492 54.8086 11.1075V10.6327C54.8086 10.2909 54.7246 10.0381 54.5634 9.87345C54.4021 9.70882 54.1238 9.6265 53.73 9.6265H49.4414C49.3379 9.6265 49.2929 9.6706 49.2929 9.76541V12.1136H49.2922Z" fill="white"/>
<path d="M66.2804 8.06641C67.0748 8.06641 67.6434 8.22442 67.9795 8.53458C68.3155 8.84473 68.4835 9.3129 68.4835 9.93983V10.4844C68.4835 11.1172 68.2383 11.5979 67.7409 11.9272C68.2705 12.2307 68.5421 12.718 68.5421 13.389V14.0475C68.5421 14.3511 68.5098 14.6237 68.4385 14.8641C68.3673 15.1044 68.2578 15.3131 68.0965 15.4844C67.9352 15.6549 67.7282 15.7879 67.4634 15.8769C67.1986 15.9658 66.8753 16.0158 66.4882 16.0158H59.6027C59.3702 16.0158 59.2539 15.9018 59.2539 15.674V8.4089C59.2539 8.18106 59.3702 8.06714 59.6027 8.06714H66.2812L66.2804 8.06641ZM61.0295 11.3701H65.7831C66.1709 11.3701 66.4289 11.3135 66.5707 11.1996C66.7125 11.0856 66.7777 10.921 66.7777 10.6998V10.3139C66.7777 10.0795 66.7132 9.90896 66.5775 9.79504C66.4417 9.68773 66.2219 9.63041 65.9248 9.63041H61.184C61.0805 9.63041 61.0355 9.68112 61.0355 9.77593V11.3708H61.0287L61.0295 11.3701ZM61.0295 12.6041V14.2937C61.0295 14.3952 61.0812 14.4393 61.178 14.4393H65.9316C66.2414 14.4393 66.4612 14.3827 66.5902 14.2746C66.7192 14.1673 66.7905 13.9902 66.7905 13.7491V13.3185C66.7905 13.084 66.7192 12.9069 66.5775 12.7871C66.4357 12.6665 66.1709 12.6033 65.7831 12.6033H61.0295V12.6041Z" fill="white"/>
<path d="M72.8622 8.06641C73.0303 8.06641 73.1143 8.14872 73.1143 8.31335V15.7622C73.1143 15.9268 73.0303 16.0091 72.8622 16.0091H71.6095C71.4287 16.0091 71.3447 15.9268 71.3447 15.7622V8.31335C71.3447 8.14872 71.4355 8.06641 71.6095 8.06641H72.8622Z" fill="white"/>
<path d="M85.0057 8.06641C85.1864 8.06641 85.2705 8.14872 85.2705 8.31335V9.42682C85.2705 9.60395 85.1797 9.68626 85.0057 9.68626H81.369V15.7615C81.369 15.9261 81.285 16.0084 81.117 16.0084H79.8508C79.6827 16.0084 79.5987 15.9261 79.5987 15.7615V9.68626H75.9621C75.7813 9.68626 75.6973 9.59733 75.6973 9.42682V8.31335C75.6973 8.14872 75.788 8.06641 75.9621 8.06641H85.0049H85.0057Z" fill="white"/>
<path d="M94.1716 8.06324C95.0628 8.06324 95.6959 8.25947 96.0837 8.65194C96.4715 9.04441 96.665 9.6265 96.665 10.3989V11.0442C96.665 11.6962 96.5293 12.2084 96.2585 12.5884C95.9869 12.9684 95.5481 13.2087 94.9345 13.316L96.9171 15.7208C96.9561 15.759 96.9688 15.8156 96.9493 15.8913C96.9366 15.967 96.8721 16.0052 96.7618 16.0052H95.2698C95.1663 16.0052 95.1018 15.9928 95.0628 15.9736C95.0237 15.9487 94.9855 15.9104 94.9465 15.8597L93.1124 13.499H89.3662V15.7583C89.3662 15.9229 89.2822 16.0052 89.1142 16.0052H87.8615C87.6807 16.0052 87.5967 15.9229 87.5967 15.7583V8.40426C87.5967 8.17642 87.713 8.0625 87.9455 8.0625H94.1723L94.1716 8.06324ZM89.379 12.1136H93.8168C94.2106 12.1136 94.4889 12.0313 94.6502 11.8667C94.8115 11.702 94.8955 11.4492 94.8955 11.1075V10.6327C94.8955 10.2909 94.8115 10.0381 94.6502 9.87345C94.4889 9.70882 94.2106 9.6265 93.8168 9.6265H89.5283C89.4248 9.6265 89.3797 9.6706 89.3797 9.76541V12.1136H89.379Z" fill="white"/>
<path d="M100.689 8.06641C100.857 8.06641 100.941 8.14872 100.941 8.31335V12.8444C100.941 13.1479 100.966 13.4015 101.018 13.5977C101.07 13.8006 101.154 13.9586 101.27 14.0725C101.386 14.1931 101.541 14.2754 101.742 14.3195C101.942 14.3702 102.187 14.3952 102.491 14.3952H105.701C106.005 14.3952 106.25 14.3702 106.45 14.3195C106.651 14.2688 106.806 14.1864 106.922 14.0725C107.038 13.952 107.122 13.794 107.167 13.5977C107.212 13.3949 107.239 13.1487 107.239 12.8444V8.31335C107.239 8.14872 107.323 8.06641 107.491 8.06641H108.757C108.925 8.06641 109.009 8.14872 109.009 8.31335V13.0156C109.009 13.5603 108.951 14.0218 108.835 14.4077C108.719 14.7876 108.531 15.0978 108.273 15.3381C108.015 15.5785 107.679 15.7497 107.266 15.857C106.852 15.9643 106.355 16.015 105.767 16.015H102.427C101.839 16.015 101.342 15.9643 100.935 15.857C100.529 15.7497 100.193 15.5785 99.934 15.3381C99.6759 15.0978 99.4884 14.7876 99.3654 14.4077C99.2423 14.0277 99.1846 13.5595 99.1846 13.0156V8.31335C99.1846 8.14872 99.2753 8.06641 99.4494 8.06641H100.689H100.689Z" fill="white"/>
<path d="M113.988 8.06641C114.156 8.06641 114.305 8.0789 114.428 8.09801C114.551 8.123 114.66 8.16122 114.751 8.23104C114.842 8.29424 114.925 8.38318 115.003 8.49048C115.074 8.59778 115.151 8.74331 115.229 8.92705L117.638 14.3761C117.67 14.4459 117.722 14.4775 117.799 14.4775H117.941C118.018 14.4775 118.07 14.4459 118.102 14.3761L120.512 8.92705C120.589 8.74331 120.667 8.59778 120.738 8.49048C120.809 8.38318 120.893 8.29424 120.99 8.23104C121.08 8.16783 121.19 8.12373 121.306 8.09801C121.429 8.07302 121.571 8.06641 121.739 8.06641H122.979C123.38 8.06641 123.651 8.15534 123.793 8.33246C123.935 8.50959 124 8.81313 124 9.24382V15.7622C124 15.9268 123.909 16.0091 123.735 16.0091H122.553C122.385 16.0091 122.301 15.9268 122.301 15.7622V9.83252C122.301 9.75682 122.269 9.7186 122.21 9.7186H122.107C122.029 9.7186 121.978 9.75021 121.958 9.80753L119.62 14.8957C119.529 15.0985 119.432 15.2757 119.336 15.4146C119.239 15.5535 119.135 15.6674 119.026 15.7629C118.916 15.8519 118.787 15.921 118.645 15.9592C118.503 15.9974 118.335 16.0158 118.141 16.0158H117.585C117.391 16.0158 117.223 15.9967 117.081 15.9592C116.939 15.921 116.809 15.8577 116.7 15.7629C116.59 15.674 116.48 15.5542 116.39 15.4146C116.293 15.2757 116.196 15.1044 116.106 14.8957L113.767 9.80753C113.742 9.74433 113.696 9.7186 113.619 9.7186H113.515C113.451 9.7186 113.425 9.75682 113.425 9.83252V15.7622C113.425 15.9268 113.341 16.0091 113.173 16.0091H111.99C111.81 16.0091 111.726 15.9268 111.726 15.7622V9.24382C111.726 8.81313 111.797 8.50959 111.933 8.33246C112.074 8.15534 112.346 8.06641 112.753 8.06641H113.987H113.988Z" fill="white"/>
<path d="M39.1551 18.3594C39.4935 18.3594 39.7823 18.391 40.0201 18.4542C40.2586 18.5174 40.4521 18.6181 40.6014 18.7555C40.7507 18.893 40.8587 19.0708 40.9255 19.2891C40.9922 19.5074 41.026 19.7734 41.026 20.088V21.214C41.026 21.5278 40.993 21.7953 40.9255 22.0158C40.8587 22.2363 40.7507 22.4149 40.6014 22.5523C40.4521 22.6898 40.2586 22.789 40.0201 22.85C39.7815 22.911 39.4935 22.9419 39.1551 22.9419H37.0908C36.7525 22.9419 36.4652 22.911 36.2289 22.85C35.9926 22.789 35.7998 22.6898 35.6513 22.5523C35.502 22.4149 35.3925 22.2363 35.3242 22.0158C35.2552 21.7953 35.2207 21.5278 35.2207 21.214V20.088C35.2207 19.7742 35.2552 19.5074 35.3242 19.2891C35.3932 19.0708 35.502 18.893 35.6513 18.7555C35.8006 18.6181 35.9926 18.5181 36.2289 18.4542C36.4652 18.391 36.7525 18.3594 37.0908 18.3594H39.1551ZM36.2424 21.1412C36.2424 21.3117 36.2566 21.4543 36.2859 21.5697C36.3144 21.6851 36.3624 21.777 36.4299 21.8446C36.4967 21.9122 36.5867 21.9607 36.7007 21.9886C36.814 22.0173 36.958 22.0312 37.132 22.0312H39.1161C39.2894 22.0312 39.4335 22.0173 39.5467 21.9886C39.66 21.9607 39.7508 21.9122 39.8175 21.8446C39.8843 21.777 39.9323 21.6851 39.9615 21.5697C39.99 21.4543 40.0051 21.311 40.0051 21.1412V20.1593C40.0051 19.9888 39.9908 19.8462 39.9615 19.7308C39.9323 19.6147 39.885 19.5236 39.8175 19.4559C39.7508 19.3883 39.6607 19.3405 39.5467 19.3119C39.4335 19.284 39.2894 19.2693 39.1161 19.2693H37.132C36.958 19.2693 36.8147 19.284 36.7007 19.3119C36.5874 19.3405 36.4967 19.3883 36.4299 19.4559C36.3632 19.5236 36.3151 19.6154 36.2859 19.7308C36.2566 19.8462 36.2424 19.9895 36.2424 20.1593V21.1412Z" fill="white"/>
<path d="M46.3099 18.3594C46.8222 18.3594 47.1898 18.4733 47.4126 18.6997C47.6354 18.9268 47.7464 19.2626 47.7464 19.708V20.0814C47.7464 20.457 47.6684 20.7531 47.5123 20.9714C47.3563 21.1897 47.1028 21.3294 46.751 21.3904L47.8934 22.778C47.9159 22.8 47.9219 22.8324 47.9137 22.8765C47.9047 22.9198 47.8694 22.9419 47.8071 22.9419H46.9452C46.8875 22.9419 46.847 22.9353 46.8252 22.922C46.8027 22.9088 46.781 22.8875 46.7585 22.8566L45.703 21.4947H43.5449V22.7971C43.5449 22.8926 43.4961 22.9411 43.3979 22.9411H42.6762C42.5735 22.9411 42.5225 22.8934 42.5225 22.7971V18.5556C42.5225 18.4248 42.5892 18.3594 42.7227 18.3594H46.3106H46.3099ZM43.5441 20.6966H46.1028C46.3301 20.6966 46.4907 20.6488 46.5837 20.5525C46.6774 20.457 46.724 20.3107 46.724 20.1137V19.8389C46.724 19.6426 46.6774 19.4964 46.5837 19.4001C46.4899 19.3045 46.3294 19.256 46.1028 19.256H43.6312C43.5734 19.256 43.5441 19.2825 43.5441 19.3347V20.6966Z" fill="white"/>
<path d="M53.285 18.3601C53.7434 18.3601 54.0697 18.4498 54.2639 18.6284C54.4575 18.8077 54.5542 19.0782 54.5542 19.4398V19.7536C54.5542 20.1203 54.4117 20.3974 54.1267 20.5848C54.4342 20.759 54.588 21.0405 54.588 21.4293V21.8093C54.588 21.9835 54.5677 22.1408 54.528 22.2804C54.4882 22.42 54.4222 22.5391 54.3307 22.6369C54.2392 22.7353 54.1177 22.8103 53.9669 22.8625C53.8154 22.9147 53.6286 22.9411 53.4058 22.9411H49.4376C49.3041 22.9411 49.2373 22.8757 49.2373 22.7449V18.5556C49.2373 18.4248 49.3041 18.3594 49.4376 18.3594H53.2858L53.285 18.3601ZM50.259 20.2651H52.9977C53.2205 20.2651 53.372 20.2328 53.4523 20.1666C53.5326 20.1012 53.5723 20.0057 53.5723 19.8785V19.6559C53.5723 19.5206 53.5333 19.4214 53.4553 19.3582C53.3773 19.295 53.2513 19.2634 53.078 19.2634H50.3452C50.2875 19.2634 50.2582 19.292 50.2582 19.3486V20.2651H50.259ZM50.259 20.9788V21.9541C50.259 22.0107 50.2875 22.0393 50.346 22.0393H53.0847C53.2625 22.0393 53.39 22.0077 53.4658 21.9445C53.5416 21.8813 53.5791 21.7799 53.5791 21.6403V21.3911C53.5791 21.2559 53.5378 21.1537 53.4553 21.0839C53.3728 21.0141 53.2205 20.9795 52.9977 20.9795H50.259V20.9788Z" fill="white"/>
<path d="M56.9193 18.3594C57.0176 18.3594 57.0664 18.4071 57.0664 18.5034V22.7971C57.0664 22.8926 57.0176 22.9411 56.9193 22.9411H56.1977C56.095 22.9411 56.0439 22.8934 56.0439 22.7971V18.5034C56.0439 18.4071 56.095 18.3594 56.1977 18.3594H56.9193Z" fill="white"/>
<path d="M63.7074 18.3594C63.8094 18.3594 63.8612 18.4071 63.8612 18.5034V19.1451C63.8612 19.2457 63.8102 19.2957 63.7074 19.2957H61.6093V22.7978C61.6093 22.8934 61.5605 22.9419 61.4623 22.9419H60.7339C60.6356 22.9419 60.5869 22.8941 60.5869 22.7978V19.2957H58.4887C58.386 19.2957 58.335 19.2457 58.335 19.1451V18.5034C58.335 18.4071 58.386 18.3594 58.4887 18.3594H63.7067H63.7074Z" fill="white"/>
<path d="M26.8203 6.84912L15.293 0.328528C14.5188 -0.109509 13.5572 -0.109509 12.783 0.328528L1.25497 6.84912C0.480835 7.28716 0 8.10297 0 8.97904V22.021C0 22.897 0.480835 23.7128 1.25497 24.1509L12.783 30.6722C13.1701 30.8912 13.6037 31.0007 14.038 31.0007C14.4723 31.0007 14.9059 30.8912 15.293 30.6722L26.821 24.1509C27.5951 23.7128 28.076 22.897 28.076 22.021V8.97904C28.076 8.10297 27.5951 7.28716 26.821 6.84912H26.8203ZM14.2885 28.9671C14.134 29.0546 13.942 29.0546 13.7874 28.9671L2.2594 22.4465C2.10487 22.359 2.00886 22.1959 2.00886 22.021V12.6068H14.038C14.8061 12.6068 15.5075 12.8957 16.0333 13.3697C16.6215 13.8989 16.9913 14.6581 16.9913 15.5004C16.9913 16.3426 16.6215 17.1019 16.0333 17.631H18.4968C18.8186 16.9872 18.9994 16.264 18.9994 15.5004C18.9994 14.7367 18.8186 14.0135 18.4968 13.3697C18.3625 13.1007 18.2035 12.8457 18.0219 12.6068C17.1173 11.4132 15.668 10.6386 14.0372 10.6386H2.00886V9.87643H14.038C16.1234 9.87643 17.9529 10.9723 18.9581 12.6068C19.1074 12.8494 19.2387 13.1044 19.3497 13.3697C19.6257 14.0268 19.778 14.747 19.778 15.5004C19.778 16.2537 19.6257 16.9732 19.3497 17.631H21.4786C21.6818 16.9475 21.7861 16.2317 21.7861 15.5004C21.7861 13.4726 20.9805 11.5661 19.517 10.1322C18.0535 8.69829 16.1076 7.90894 14.038 7.90894H3.40035L13.7874 2.03291C13.8647 1.98954 13.951 1.9675 14.038 1.9675C14.125 1.9675 14.2113 1.98954 14.2885 2.03291L25.8166 8.5535C25.9711 8.64096 26.0671 8.80412 26.0671 8.97904V18.3932H14.038C13.2699 18.3932 12.5685 18.1043 12.0426 17.6303C11.4545 17.1011 11.0847 16.3419 11.0847 15.4996C11.0847 14.6574 11.4545 13.8981 12.0426 13.369H9.5792C9.25739 14.0128 9.07661 14.736 9.07661 15.4996C9.07661 18.18 11.3023 20.3607 14.038 20.3607H26.0671V21.1236H14.038C10.8732 21.1236 8.29797 18.6004 8.29797 15.4996C8.29797 14.7463 8.45025 14.0268 8.72555 13.369H6.59667C6.39338 14.0525 6.28837 14.7683 6.28837 15.4996C6.28837 17.5274 7.09401 19.4339 8.55752 20.8678C10.021 22.3017 11.9669 23.0918 14.0365 23.0918H24.6734L14.287 28.9671H14.2885Z" fill="white"/>
</g>
<defs>
<clipPath id="clip0_15113_6921">
<rect width="124" height="31" fill="white"/>
</clipPath>
</defs>
</svg>
