<svg width="32" height="32" viewBox="0 0 32 32" fill="none" xmlns="http://www.w3.org/2000/svg">
<path d="M28.3334 19.9874C28.3334 20.2407 28.2401 20.4941 28.0401 20.6941L21.3601 27.3741C20.9734 27.7607 20.3334 27.7607 19.9467 27.3741C19.5601 26.9874 19.5601 26.3474 19.9467 25.9607L26.6267 19.2807C27.0134 18.8941 27.6534 18.8941 28.0401 19.2807C28.2267 19.4807 28.3334 19.7341 28.3334 19.9874Z" fill="white"/>
<path d="M28.3332 19.9883C28.3332 20.535 27.8798 20.9883 27.3332 20.9883L4.66651 20.9883C4.11984 20.9883 3.66651 20.535 3.66651 19.9883C3.66651 19.4416 4.11984 18.9883 4.66651 18.9883L27.3332 18.9883C27.8798 18.9883 28.3332 19.4416 28.3332 19.9883Z" fill="white"/>
<path d="M12.3466 5.31944C12.3466 5.57277 12.2533 5.8261 12.0533 6.0261L5.37326 12.7061C4.98659 13.0928 4.34659 13.0928 3.95992 12.7061C3.57326 12.3194 3.57326 11.6794 3.95992 11.2928L10.6399 4.61277C11.0266 4.2261 11.6666 4.2261 12.0533 4.61277C12.2533 4.81277 12.3466 5.0661 12.3466 5.31944Z" fill="white"/>
<path d="M28.3332 12.0117C28.3332 12.5584 27.8798 13.0117 27.3332 13.0117L4.66651 13.0117C4.11984 13.0117 3.66651 12.5584 3.66651 12.0117C3.66651 11.4651 4.11984 11.0117 4.66651 11.0117L27.3332 11.0117C27.8798 11.0117 28.3332 11.4517 28.3332 12.0117Z" fill="white"/>
</svg>
