<svg width="32" height="32" viewBox="0 0 32 32" fill="none" xmlns="http://www.w3.org/2000/svg">
<path d="M9.46675 14.0898L7.30566 16.2509L9.46675 18.412" stroke="white" stroke-width="1.6" stroke-miterlimit="10" stroke-linecap="round" stroke-linejoin="round"/>
<path d="M18.1113 14.0898L20.2724 16.2509L18.1113 18.412" stroke="white" stroke-width="1.6" stroke-miterlimit="10" stroke-linecap="round" stroke-linejoin="round"/>
<path d="M14.8696 11.9258L12.7085 20.5701" stroke="white" stroke-width="1.6" stroke-miterlimit="10" stroke-linecap="round" stroke-linejoin="round"/>
<path d="M21.1367 24.6786H6.44133C4.65104 24.6786 3.19971 23.2273 3.19971 21.437V6.74162C3.19971 4.95133 4.65104 3.5 6.44133 3.5H21.1367C22.927 3.5 24.3783 4.95133 24.3783 6.74162V21.437C24.3783 23.2273 22.927 24.6786 21.1367 24.6786Z" stroke="white" stroke-width="1.6" stroke-miterlimit="10" stroke-linecap="round" stroke-linejoin="round"/>
<path d="M28.7006 11.0625V25.7579C28.7006 27.5481 27.2493 28.9995 25.459 28.9995H10.7637" stroke="white" stroke-width="1.6" stroke-miterlimit="10" stroke-linecap="round" stroke-linejoin="round"/>
<path d="M24.3785 7.82216H12.9247C11.1344 7.82216 9.68311 6.37084 9.68311 4.58054V3.5" stroke="white" stroke-width="1.6" stroke-miterlimit="10" stroke-linecap="round" stroke-linejoin="round"/>
</svg>
