<svg width="20" height="20" viewBox="0 0 20 20" fill="none" xmlns="http://www.w3.org/2000/svg">
<path d="M10.0003 18.3346C13.3732 18.3346 16.3921 16.3234 17.6911 13.2109C17.7728 13.0149 17.6801 12.7897 17.4843 12.7079C17.2873 12.6263 17.0629 12.7189 16.981 12.9147C15.8021 15.7399 13.062 17.5654 10.0003 17.5654C5.82941 17.5654 2.43622 14.1721 2.43622 10.0013C2.43622 5.83048 5.82941 2.4372 10.0003 2.4372C14.1712 2.4372 17.5644 5.83052 17.5644 10.0013C17.5644 10.3898 17.5349 10.7762 17.4765 11.1498C17.444 11.3596 17.5875 11.5563 17.7973 11.589C18.0064 11.6214 18.2037 11.4781 18.2367 11.2682C18.3011 10.8557 18.3336 10.4294 18.3336 10.0013C18.3337 5.40632 14.5954 1.66797 10.0003 1.66797C5.40525 1.66797 1.66699 5.40632 1.66699 10.0013C1.66699 14.5963 5.40525 18.3346 10.0003 18.3346Z" fill="white"/>
<path d="M10.0003 4.16406C6.78417 4.16406 4.16748 6.78148 4.16748 9.99863C4.16748 13.2149 6.78417 15.8315 10.0003 15.8315C13.2175 15.8315 15.8347 13.2149 15.8347 9.99863C15.8347 6.78152 13.2175 4.16406 10.0003 4.16406ZM10.0003 15.0622C7.20836 15.0622 4.93671 12.7907 4.93671 9.99863C4.93671 7.20554 7.20833 4.93329 10.0003 4.93329C12.7933 4.93329 15.0654 7.20554 15.0654 9.99863C15.0654 12.7908 12.7933 15.0622 10.0003 15.0622Z" fill="white"/>
<path d="M10.3136 7.15036C10.1686 6.94954 9.83405 6.95017 9.68958 7.1505L7.79631 9.77756C7.69941 9.91189 7.69941 10.0931 7.79631 10.2274L9.68857 12.8512C9.84169 13.0634 10.1587 13.0644 10.3126 12.8511L12.2058 10.224C12.3027 10.0897 12.3027 9.90852 12.2058 9.77419L10.3136 7.15036ZM10.0005 11.9686L8.58252 10.0023L10.0015 8.03301L11.4196 9.99929L10.0005 11.9686Z" fill="white"/>
</svg>
