<svg width="32" height="32" viewBox="0 0 32 32" fill="none" xmlns="http://www.w3.org/2000/svg">
<path d="M4.4705 11.9339C5.33917 8.23068 8.23068 5.33916 11.9339 4.4705C14.6083 3.84317 17.3917 3.84317 20.0661 4.4705C23.7693 5.33916 26.6608 8.23068 27.5295 11.9339C28.1568 14.6083 28.1568 17.3917 27.5295 20.0661C26.6608 23.7693 23.7693 26.6608 20.0661 27.5295C17.3917 28.1568 14.6083 28.1568 11.9339 27.5295C8.23068 26.6608 5.33917 23.7693 4.4705 20.0661C3.84317 17.3917 3.84317 14.6083 4.4705 11.9339Z" stroke="white" stroke-width="1.6"/>
<path d="M13.5758 15.0618C13.8468 14.3842 14.3837 13.8473 15.0613 13.5762L17.7783 12.4895C18.8667 12.0541 19.9468 13.1342 19.5114 14.2226L18.4246 16.9396C18.1536 17.6172 17.6167 18.1541 16.9391 18.4251L14.2221 19.5119C13.1337 19.9473 12.0536 18.8672 12.489 17.7788L13.5758 15.0618Z" stroke="white" stroke-width="1.6" stroke-linecap="round" stroke-linejoin="round"/>
</svg>
