<svg width="24" height="24" viewBox="0 0 24 24" fill="none" xmlns="http://www.w3.org/2000/svg">
<path d="M6 20H4.33333C3.04467 20 2 18.9553 2 17.6667L2 6.33333C2 5.04467 3.04467 4 4.33333 4H6" stroke="white" stroke-width="1.5" stroke-linecap="round"/>
<path d="M18 4H19.6667C20.9553 4 22 5.04467 22 6.33333V17.6667C22 18.9553 20.9553 20 19.6667 20H18" stroke="white" stroke-width="1.5" stroke-linecap="round"/>
<path d="M11 14L12.9661 9.94817" stroke="white" stroke-width="1.5" stroke-linecap="round"/>
<path d="M16 15L18.4107 12.5893C18.7362 12.2638 18.7362 11.7362 18.4107 11.4107L16 9" stroke="white" stroke-width="1.5" stroke-linecap="round" stroke-dasharray="0.17 0.17"/>
<path d="M8 15L5.58926 12.5893C5.26382 12.2638 5.26382 11.7362 5.58926 11.4107L8 9" stroke="white" stroke-width="1.5" stroke-linecap="round" stroke-dasharray="0.17 0.17"/>
</svg>
