<svg width="32" height="32" viewBox="0 0 32 32" fill="none" xmlns="http://www.w3.org/2000/svg">
<path d="M12 2.66675L20 2.66675C26.6666 2.66675 29.3333 5.33341 29.3333 12.0001L29.3333 20.0001C29.3333 26.6667 26.6666 29.3334 20 29.3334L12 29.3334C5.33329 29.3334 2.66663 26.6667 2.66663 20.0001L2.66663 12.0001C2.66663 5.33341 5.33329 2.66675 12 2.66675Z" stroke="white" stroke-width="1.5" stroke-linecap="round" stroke-linejoin="round"/>
<path d="M11.4268 20.3601L20.1467 11.6401" stroke="white" stroke-width="1.5" stroke-linecap="round" stroke-linejoin="round"/>
<path d="M11.9733 13.8266C12.879 13.8266 13.6132 13.0924 13.6132 12.1866C13.6132 11.2809 12.879 10.5466 11.9733 10.5466C11.0675 10.5466 10.3333 11.2809 10.3333 12.1866C10.3333 13.0924 11.0675 13.8266 11.9733 13.8266Z" stroke="white" stroke-width="1.5" stroke-linecap="round" stroke-linejoin="round"/>
<path d="M20.6934 21.4533C21.5992 21.4533 22.3335 20.7191 22.3335 19.8133C22.3335 18.9076 21.5992 18.1733 20.6934 18.1733C19.7877 18.1733 19.0535 18.9076 19.0535 19.8133C19.0535 20.7191 19.7877 21.4533 20.6934 21.4533Z" stroke="white" stroke-width="1.5" stroke-linecap="round" stroke-linejoin="round"/>
</svg>
