<svg width="24" height="24" viewBox="0 0 24 24" fill="none" xmlns="http://www.w3.org/2000/svg">
<path d="M12 21C16.9706 21 21 16.9706 21 12C21 7.02944 16.9706 3 12 3C7.02944 3 3 7.02944 3 12C3 16.9706 7.02944 21 12 21Z" stroke="white" stroke-width="1.5" stroke-linecap="round" stroke-linejoin="round"/>
<path d="M12.0005 13.5V12.75C12.5938 12.75 13.1739 12.5741 13.6672 12.2444C14.1605 11.9148 14.5451 11.4462 14.7721 10.8981C14.9992 10.3499 15.0586 9.74667 14.9428 9.16473C14.8271 8.58279 14.5414 8.04824 14.1218 7.62868C13.7023 7.20912 13.1677 6.9234 12.5858 6.80765C12.0038 6.69189 11.4006 6.7513 10.8524 6.97836C10.3043 7.20543 9.83572 7.58994 9.50608 8.08329C9.17644 8.57664 9.00049 9.15666 9.00049 9.75" stroke="white" stroke-width="1.5" stroke-linecap="round" stroke-linejoin="round"/>
<path d="M12 18.75C12.8284 18.75 13.5 18.0784 13.5 17.25C13.5 16.4216 12.8284 15.75 12 15.75C11.1716 15.75 10.5 16.4216 10.5 17.25C10.5 18.0784 11.1716 18.75 12 18.75Z" fill="white"/>
</svg>
