<svg width="32" height="32" viewBox="0 0 32 32" fill="none" xmlns="http://www.w3.org/2000/svg">
<path fill-rule="evenodd" clip-rule="evenodd" d="M24.0057 12.543C24.002 12.5833 24.0002 12.6241 24.0002 12.6654V22.6654C24.0002 24.1382 22.8063 25.3321 21.3335 25.3321H10.6668C9.19407 25.3321 8.00016 24.1382 8.00016 22.6654L8.00016 12.6654C8.00016 12.6241 7.99829 12.5833 7.99462 12.543L5.3335 15.216L5.3335 22.6654C5.3335 25.6109 7.72131 27.9987 10.6668 27.9987H21.3335C24.279 27.9987 26.6668 25.6109 26.6668 22.6654V15.216L24.0057 12.543Z" fill="white"/>
<path fill-rule="evenodd" clip-rule="evenodd" d="M14.5877 5.92268C15.3683 5.13862 16.6314 5.13862 17.412 5.92268L27.0549 15.6087C27.5745 16.1305 28.4187 16.1324 28.9405 15.6129C29.4624 15.0933 29.4643 14.2491 28.9447 13.7273L25.3332 10.0996V6.62061C25.3332 5.88423 24.7362 5.28727 23.9998 5.28727C23.2635 5.28727 22.6665 5.88423 22.6665 6.62061V7.42101L19.3018 4.04126C17.4788 2.21021 14.5208 2.2102 12.6979 4.04126L3.05493 13.7273C2.53539 14.2491 2.53727 15.0933 3.05913 15.6129C3.58099 16.1324 4.4252 16.1305 4.94474 15.6087L14.5877 5.92268Z" fill="white"/>
</svg>
