<svg width="24" height="24" viewBox="0 0 24 24" fill="none" xmlns="http://www.w3.org/2000/svg">
<path d="M11.9543 6.69531C9.95554 6.69531 8.32812 8.3228 8.32812 10.3215C8.32812 12.3201 9.95561 13.9476 11.9543 13.9476C13.954 13.9476 15.5814 12.3201 15.5814 10.3215C15.5814 8.3228 13.9539 6.69531 11.9543 6.69531ZM11.9543 12.9879C10.4852 12.9879 9.28813 11.7926 9.28813 10.3217C9.28813 8.85087 10.4834 7.65555 11.9543 7.65555C13.4262 7.65555 14.6214 8.85274 14.6214 10.3217C14.6214 11.7907 13.4233 12.9879 11.9543 12.9879Z" fill="white"/>
<path d="M12.0001 3.24805C7.17396 3.24805 3.24756 7.17421 3.24756 12.0006C3.24756 16.827 7.17372 20.7532 12.0001 20.7532C16.8265 20.7532 20.7527 16.827 20.7527 12.0006C20.7527 7.17421 16.8265 3.24805 12.0001 3.24805ZM6.75564 17.7577C8.19283 16.4452 10.0369 15.7271 12.0001 15.7271C13.9586 15.7271 15.8063 16.4443 17.2446 17.7577C15.8599 19.0205 14.0168 19.793 12.0001 19.793C9.98167 19.793 8.1414 19.0234 6.75564 17.7577ZM17.9108 17.0696C16.2936 15.5837 14.2076 14.7709 11.9999 14.7709C9.78456 14.7709 7.70604 15.5846 6.08892 17.0696C4.91798 15.7065 4.21017 13.9354 4.21017 12.0006C4.21017 7.70504 7.70697 4.208 12.0027 4.208C16.2983 4.208 19.7924 7.7048 19.7924 12.0006C19.7924 13.9346 19.0827 15.7038 17.9108 17.0696Z" fill="white"/>
</svg>
